<svg xmlns="http://www.w3.org/2000/svg" viewBox="0 0 512 512"><path d="M442.491 241.824l-15.808-27.088a7.473 7.473 0 0 0-12.907 7.533l10.158 17.406h-96.192l48.099-82.408 14.088 24.139a7.471 7.471 0 0 0 10.22 2.687 7.472 7.472 0 0 0 2.687-10.22l-19.712-33.777a10.373 10.373 0 0 0-8.927-5.126H137.804a10.368 10.368 0 0 0-8.926 5.126L69.511 241.821a10.296 10.296 0 0 0 .741 11.525l103.663 134.399a7.458 7.458 0 0 0 5.922 2.909 7.473 7.473 0 0 0 5.911-12.037l-95.64-123.998h101.311l49.223 195.168-26.057-33.784a7.474 7.474 0 0 0-11.834 9.128l45.063 58.426a10.265 10.265 0 0 0 8.186 4.025c3.23 0 6.213-1.467 8.185-4.024L441.75 253.345a10.293 10.293 0 0 0 .741-11.521zm-79.664-91.909l-47.921 82.104-46.136-82.104h94.057zm-60.762 89.76h-92.13L256 157.696l46.065 81.979zm-213.998 0l48.093-82.408 48.099 82.408H88.067zm61.106-89.76h94.057l-46.136 82.104-47.921-82.104zM256 449.569l-49.168-194.95h98.336L256 449.569zm15.358.22l49.223-195.169h101.311L271.358 449.789zM256 24.418a7.472 7.472 0 0 0-7.472 7.472v33.875c0 4.127 3.345 7.472 7.472 7.472s7.472-3.345 7.472-7.472V31.89A7.472 7.472 0 0 0 256 24.418zm181.019 58.376a7.474 7.474 0 0 0-10.567 0l-23.953 23.952a7.473 7.473 0 0 0 10.567 10.568l23.953-23.952a7.473 7.473 0 0 0 0-10.568zm67.509 173.546h-33.875a7.472 7.472 0 0 0 0 14.944h33.875a7.472 7.472 0 0 0 0-14.944zm-463.181 0H7.472a7.472 7.472 0 0 0 0 14.944h33.875a7.472 7.472 0 0 0 7.472-7.472 7.472 7.472 0 0 0-7.472-7.472zm68.155-149.594L85.548 82.793a7.473 7.473 0 0 0-10.567 10.568l23.953 23.953a7.452 7.452 0 0 0 5.284 2.188 7.473 7.473 0 0 0 5.284-12.756z"/></svg>